<?xml version="1.0" encoding="UTF-8"?>
<svg id="Calque_1" data-name="Calque 1" xmlns="http://www.w3.org/2000/svg" viewBox="0 0 30 30">
  <defs>
    <style>
      .cls-1 {
        fill: #ff632e;
      }

      .cls-2 {
        fill: #fff;
      }
    </style>
  </defs>
  <path class="cls-1" d="M11.45,20.77c-.69-1.4-1.81-1.7-2.96-1.94-.14-.03-.3-.02-.45,0-.91.12-1.37-.12-1.29-1.18.07-.94-.64-1.51-1.42-1.9-.49-.25-1.13-.47-1-1.09.07-.35.61-.67,1.01-.88.89-.47,1.47-1.08,1.45-2.17-.03-1.62.03-3.25-.01-4.87-.07-2.83,1.75-4.85,4.69-4.84,2.8,0,5.6-.1,8.4.03,3.05.14,4.28,1.76,4.49,4.45.14,1.7.07,3.43.01,5.14-.04,1.17.55,1.8,1.5,2.31.37.2.8.58.88.95.05.24-.45.69-.8.88-1.04.56-1.66,1.27-1.59,2.55.08,1.5.09,3.01,0,4.51-.18,3.14-1.23,4.58-4.16,4.7-3.3.13-6.62.11-9.92-.12-2.42-.17-3.13-1.49-3.45-3.6-.43-2.84-.22-2.98,2.63-2.91.59.01,1.18,0,1.98,0ZM17.83,18.86c1.25,0,2.29-.03,3.33.01.61.03.91-.13.85-.79-.11-1.18.41-2.11,1.29-2.82.52-.42.45-.63,0-1.02-.89-.75-1.34-1.71-1.29-2.92.06-1.68.04-3.37,0-5.05-.02-.71-.06-1.47-.96-1.74-2.4-.72-5.19.64-5.41,3.23-.28,3.28-.16,6.6-.24,9.91-.03,1.2-.05,2.41-.19,3.6-.22,1.89-1.09,3.33-3.27,3.86.3.12.4.2.49.2,2.5,0,4.99.02,7.49-.06,1.48-.05,2.09-.77,2.1-2.25,0-.21,0-.42,0-.63.02-1.52.08-1.41-1.37-1.54-1.18-.11-2.15-.63-2.81-1.98ZM9.41,9.89c-.03.86.51,1.47,1.31,1.49.79.02,1.44-.57,1.47-1.35.04-.77-.59-1.45-1.36-1.48-.89-.03-1.4.44-1.43,1.33Z"/>
  <path class="cls-2" d="M17.83,18.86c.66,1.35,1.63,1.87,2.81,1.98,1.45.14,1.39.02,1.37,1.54,0,.21,0,.42,0,.63-.01,1.47-.62,2.2-2.1,2.25-2.49.08-4.99.05-7.49.06-.1,0-.2-.08-.49-.2,2.18-.53,3.05-1.97,3.27-3.86.14-1.19.16-2.4.19-3.6.08-3.3-.04-6.62.24-9.91.22-2.59,3.01-3.95,5.41-3.23.9.27.94,1.03.96,1.74.04,1.68.07,3.37,0,5.05-.04,1.22.4,2.17,1.29,2.92.46.39.53.6,0,1.02-.88.71-1.4,1.64-1.29,2.82.06.66-.24.81-.85.79-1.04-.05-2.09-.01-3.33-.01ZM19.37,8.68c-.75-.01-1.4.57-1.42,1.28-.03.77.59,1.43,1.36,1.44.74,0,1.36-.6,1.37-1.33.02-.74-.58-1.37-1.31-1.38Z"/>
  <path class="cls-2" d="M9.41,9.89c.03-.89.54-1.37,1.43-1.33.77.03,1.39.71,1.36,1.48-.04.78-.68,1.37-1.47,1.35-.81-.02-1.34-.63-1.31-1.49Z"/>
  <path class="cls-1" d="M19.37,8.68c.73,0,1.33.64,1.31,1.38-.02.74-.64,1.34-1.37,1.33-.76,0-1.38-.66-1.36-1.44.02-.7.67-1.29,1.42-1.28Z"/>
</svg>