<?xml version="1.0" encoding="UTF-8"?>
<svg id="Calque_1" data-name="Calque 1" xmlns="http://www.w3.org/2000/svg" viewBox="0 0 30 30">
  <defs>
    <style>
      .cls-1 {
        fill: #63e68e;
      }
    </style>
  </defs>
  <path class="cls-1" d="M15.04,9.95s0,.02,0,.03c2.59,0,5.17,0,7.76,0,1.24,0,2.48-.02,3.72-.04.53,0,.86-.48.56-.86-.15-.18-.48-.3-.73-.31-.82-.04-1.64-.03-2.47,0-.37.01-.48-.12-.48-.49.02-1.97.01-3.95.01-5.92,0-.76-.17-.93-.92-.93-2.69,0-5.38,0-8.07,0-2.36,0-4.73,0-7.09,0-.6,0-.77.2-.77.78,0,1.53,0,3.05,0,4.58,0,.87.14,1.01,1.01,1.01,4.71,0,9.42,0,14.13,0,.38,0,.52.08.51.5-.01.4-.17.47-.52.47-2.38,0-4.76,0-7.13,0-3.63,0-7.27,0-10.9,0-.6,0-.87.19-.86.61,0,.4.3.59.88.59,3.78,0,7.57,0,11.35,0ZM9.92,16.84c-.13.25-.2.41-.29.55-.97,1.51-1.96,3-2.91,4.52-.13.21-.18.56-.09.78.06.16.41.28.63.28,1.63.02,3.26.01,4.89,0,.47,0,.77-.22.77-.56,0-.37-.28-.59-.78-.6-1.12,0-2.24,0-3.36,0-.15,0-.31-.02-.52-.03.09-.17.13-.28.2-.38.93-1.44,1.88-2.88,2.79-4.33.41-.65.88-1.31,1.12-2.03.54-1.63-.4-3.31-2.04-3.84-1.6-.52-3.38.34-3.93,1.93-.2.58-.44,1.22.28,1.69.09.06.12.2.17.31.51,1.06,1.31,1.68,2.53,1.67.15,0,.29.02.55.04ZM22.21,13.64c0,.3,0,.49,0,.68,0,.79,0,1.59.01,2.38,0,.45.22.71.57.72.36.01.61-.23.61-.68.02-1.42.03-2.84,0-4.26,0-.21-.2-.48-.38-.58-.13-.08-.44,0-.59.11-.84.6-1.64,1.25-2.48,1.85-1,.7-2,1.41-3.06,2.03-.85.5-1.92.14-2.42-.69-.75-1.24-.04-2.68,1.45-2.9.54-.08.81-.32.78-.69-.03-.39-.39-.59-.94-.53-1.3.15-2.38,1.05-2.7,2.24-.34,1.28.1,2.58,1.14,3.36,1.02.77,2.48.86,3.54.16,1.01-.66,1.99-1.38,2.97-2.08.47-.33.93-.68,1.5-1.11ZM10.64,25.22c.28-.01.45-.03.62-.03,1.23,0,2.45.02,3.68-.03,1.13-.05,1.95-.63,2.38-1.68.45-1.09.12-2.31-.76-3.05-.86-.72-2.18-.85-3.11-.29-.3.18-.53.43-.33.81.18.36.49.41.84.27.08-.03.16-.08.24-.11.62-.24,1.18-.16,1.66.31.46.45.59.99.38,1.6-.19.56-.78.97-1.42.99-.43.02-.87.02-1.3.02-1.29,0-2.57-.02-3.86-.02-.62,0-.93.45-.63.93.7,1.11,1.42,2.21,2.14,3.31.21.32.52.42.85.2.34-.21.3-.53.13-.83-.18-.33-.4-.63-.6-.95-.29-.46-.58-.92-.92-1.46ZM15.95,14.66c.32,0,.6-.27.61-.59,0-.33-.29-.61-.64-.6-.32,0-.58.28-.58.62,0,.33.27.58.61.58Z"/>
  <path class="cls-1" d="M15.04,9.95c-3.78,0-7.57,0-11.35,0-.59,0-.88-.18-.88-.59,0-.41.27-.61.86-.61,3.63,0,7.27,0,10.9,0,2.38,0,4.76,0,7.13,0,.34,0,.51-.07.52-.47.01-.42-.13-.5-.51-.5-4.71,0-9.42,0-14.13,0-.87,0-1.01-.14-1.01-1.01,0-1.53,0-3.05,0-4.58,0-.58.17-.78.77-.78,2.36,0,4.73,0,7.09,0,2.69,0,5.38,0,8.07,0,.75,0,.92.17.92.93,0,1.97,0,3.95-.01,5.92,0,.37.1.5.48.49.82-.02,1.65-.03,2.47,0,.25.01.58.12.73.31.3.37-.03.85-.56.86-1.24.02-2.48.04-3.72.04-2.59,0-5.17,0-7.76,0,0-.01,0-.02,0-.03Z"/>
  <path class="cls-1" d="M9.92,16.84c-.26-.02-.41-.04-.55-.04-1.22.02-2.02-.61-2.53-1.67-.05-.11-.08-.25-.17-.31-.72-.46-.47-1.11-.28-1.69.55-1.6,2.32-2.45,3.93-1.93,1.64.53,2.59,2.21,2.04,3.84-.24.72-.7,1.38-1.12,2.03-.91,1.45-1.86,2.89-2.79,4.33-.06.1-.11.21-.2.38.21.01.37.03.52.03,1.12,0,2.24,0,3.36,0,.5,0,.79.23.78.6,0,.34-.3.56-.77.56-1.63,0-3.26.02-4.89,0-.22,0-.57-.13-.63-.28-.09-.22-.04-.57.09-.78.95-1.52,1.94-3.01,2.91-4.52.09-.14.16-.3.29-.55Z"/>
  <path class="cls-1" d="M22.21,13.64c-.57.42-1.03.78-1.5,1.11-.99.7-1.96,1.41-2.97,2.08-1.06.7-2.52.61-3.54-.16-1.04-.78-1.48-2.08-1.14-3.36.32-1.19,1.4-2.09,2.7-2.24.54-.06.9.14.94.53.03.37-.24.61-.78.69-1.49.22-2.2,1.66-1.45,2.9.5.83,1.57,1.19,2.42.69,1.05-.62,2.06-1.33,3.06-2.03.84-.59,1.64-1.25,2.48-1.85.16-.11.46-.19.59-.11.18.11.38.38.38.58.03,1.42.02,2.84,0,4.26,0,.45-.25.69-.61.68-.35-.01-.56-.26-.57-.72-.01-.79,0-1.58-.01-2.38,0-.19,0-.37,0-.68Z"/>
  <path class="cls-1" d="M10.64,25.22c.34.54.63,1,.92,1.46.2.32.42.62.6.95.17.3.21.62-.13.83-.34.21-.64.12-.85-.2-.72-1.1-1.44-2.2-2.14-3.31-.3-.48,0-.93.63-.93,1.29,0,2.57.01,3.86.02.43,0,.87,0,1.3-.02.64-.02,1.23-.43,1.42-.99.21-.61.08-1.16-.38-1.6-.48-.46-1.04-.55-1.66-.31-.08.03-.16.08-.24.11-.35.14-.66.09-.84-.27-.19-.38.03-.63.33-.81.93-.56,2.24-.43,3.11.29.88.74,1.2,1.96.76,3.05-.43,1.05-1.25,1.63-2.38,1.68-1.22.05-2.45.02-3.68.03-.17,0-.34.01-.62.03Z"/>
  <path class="cls-1" d="M15.95,14.66c-.34,0-.61-.25-.61-.58,0-.34.26-.61.58-.62.35,0,.65.27.64.6,0,.32-.29.59-.61.59Z"/>
</svg>